<svg width="77" height="75" viewBox="0 0 77 75" fill="none" xmlns="http://www.w3.org/2000/svg">
<mask id="path-1-inside-1_22:987" fill="white">
<path d="M63.7429 0.739929C56.9274 0.739929 51.3053 5.94483 50.6403 12.5894L20.5658 19.1074C19.354 14.6904 15.3134 11.4282 10.5169 11.4282C4.76781 11.4282 0.0881958 16.1078 0.0881958 21.857C0.0881958 27.6061 4.76781 32.2857 10.5169 32.2857C16.1015 32.2857 20.6638 27.8687 20.9206 22.3446L50.7383 15.8835C51.485 20.8227 54.975 24.8697 59.6102 26.4038L48.5554 53.602C47.9036 53.4754 47.2296 53.4027 46.543 53.4027C40.7939 53.4027 36.1142 58.0791 36.1142 63.8314C36.1142 69.5837 40.7939 74.2602 46.543 74.2602C52.2953 74.2602 56.9717 69.5837 56.9717 63.8314C56.9717 59.9143 54.798 56.5003 51.5992 54.7157L62.8541 27.0331C63.1484 27.0521 63.4426 27.0774 63.7433 27.0774C71.0047 27.0774 76.9122 21.1701 76.9122 13.9084C76.9122 6.65009 71.0049 0.739441 63.7433 0.739441L63.7429 0.739929ZM10.5169 29.0454C6.5524 29.0454 3.3282 25.8212 3.3282 21.8566C3.3282 17.8921 6.5524 14.6679 10.5169 14.6679C14.4815 14.6679 17.7057 17.8921 17.7057 21.8566C17.7057 25.8212 14.4815 29.0454 10.5169 29.0454ZM53.7321 63.8308C53.7321 67.7954 50.5079 71.0196 46.5433 71.0196C42.5788 71.0196 39.3546 67.7954 39.3546 63.8308C39.3546 59.8663 42.5788 56.6421 46.5433 56.6421C47.2236 56.6421 47.8817 56.7433 48.5051 56.9205L49.989 57.5217C52.2165 58.7462 53.7321 61.1129 53.7321 63.8309V63.8308ZM63.7429 23.8371C58.269 23.8371 53.8139 19.3821 53.8139 13.9081C53.8139 8.43412 58.2689 3.97912 63.7429 3.97912C69.2167 3.97912 73.6718 8.43412 73.6718 13.9081C73.6718 19.3851 69.2168 23.8371 63.7429 23.8371Z"/>
</mask>
<path d="M63.7429 0.739929C56.9274 0.739929 51.3053 5.94483 50.6403 12.5894L20.5658 19.1074C19.354 14.6904 15.3134 11.4282 10.5169 11.4282C4.76781 11.4282 0.0881958 16.1078 0.0881958 21.857C0.0881958 27.6061 4.76781 32.2857 10.5169 32.2857C16.1015 32.2857 20.6638 27.8687 20.9206 22.3446L50.7383 15.8835C51.485 20.8227 54.975 24.8697 59.6102 26.4038L48.5554 53.602C47.9036 53.4754 47.2296 53.4027 46.543 53.4027C40.7939 53.4027 36.1142 58.0791 36.1142 63.8314C36.1142 69.5837 40.7939 74.2602 46.543 74.2602C52.2953 74.2602 56.9717 69.5837 56.9717 63.8314C56.9717 59.9143 54.798 56.5003 51.5992 54.7157L62.8541 27.0331C63.1484 27.0521 63.4426 27.0774 63.7433 27.0774C71.0047 27.0774 76.9122 21.1701 76.9122 13.9084C76.9122 6.65009 71.0049 0.739441 63.7433 0.739441L63.7429 0.739929ZM10.5169 29.0454C6.5524 29.0454 3.3282 25.8212 3.3282 21.8566C3.3282 17.8921 6.5524 14.6679 10.5169 14.6679C14.4815 14.6679 17.7057 17.8921 17.7057 21.8566C17.7057 25.8212 14.4815 29.0454 10.5169 29.0454ZM53.7321 63.8308C53.7321 67.7954 50.5079 71.0196 46.5433 71.0196C42.5788 71.0196 39.3546 67.7954 39.3546 63.8308C39.3546 59.8663 42.5788 56.6421 46.5433 56.6421C47.2236 56.6421 47.8817 56.7433 48.5051 56.9205L49.989 57.5217C52.2165 58.7462 53.7321 61.1129 53.7321 63.8309V63.8308ZM63.7429 23.8371C58.269 23.8371 53.8139 19.3821 53.8139 13.9081C53.8139 8.43412 58.2689 3.97912 63.7429 3.97912C69.2167 3.97912 73.6718 8.43412 73.6718 13.9081C73.6718 19.3851 69.2168 23.8371 63.7429 23.8371Z" fill="black"/>
<path d="M63.7429 0.739929V1.23993H63.979L64.129 1.05761L63.7429 0.739929ZM50.6403 12.5894L50.7462 13.0781L51.1016 13.0011L51.1378 12.6392L50.6403 12.5894ZM20.5658 19.1074L20.0836 19.2397L20.2089 19.6964L20.6717 19.5961L20.5658 19.1074ZM20.9206 22.3446L20.8147 21.8559L20.439 21.9373L20.4211 22.3214L20.9206 22.3446ZM50.7383 15.8835L51.2327 15.8088L51.1531 15.2821L50.6324 15.3949L50.7383 15.8835ZM59.6102 26.4038L60.0734 26.5921L60.2746 26.097L59.7673 25.9291L59.6102 26.4038ZM48.5554 53.602L48.4601 54.0928L48.8637 54.1712L49.0186 53.7903L48.5554 53.602ZM51.5992 54.7157L51.136 54.5273L50.9695 54.9369L51.3556 55.1523L51.5992 54.7157ZM62.8541 27.0331L62.8863 26.5341L62.5267 26.5109L62.3909 26.8448L62.8541 27.0331ZM63.7433 0.739441V0.239441H63.5072L63.3572 0.421759L63.7433 0.739441ZM48.5051 56.9205L48.6928 56.4571L48.6678 56.447L48.6418 56.4396L48.5051 56.9205ZM49.989 57.5217L50.2298 57.0835L50.204 57.0693L50.1767 57.0583L49.989 57.5217ZM63.7429 0.239929C56.6677 0.239929 50.8331 5.64234 50.1428 12.5396L51.1378 12.6392C51.7775 6.24731 57.1872 1.23993 63.7429 1.23993V0.239929ZM50.5344 12.1008L20.4599 18.6188L20.6717 19.5961L50.7462 13.0781L50.5344 12.1008ZM21.048 18.9751C19.7785 14.3481 15.546 10.9282 10.5169 10.9282V11.9282C15.0809 11.9282 18.9294 15.0327 20.0836 19.2397L21.048 18.9751ZM10.5169 10.9282C4.49167 10.9282 -0.411804 15.8317 -0.411804 21.857H0.588196C0.588196 16.384 5.04395 11.9282 10.5169 11.9282V10.9282ZM-0.411804 21.857C-0.411804 27.8822 4.49167 32.7857 10.5169 32.7857V31.7857C5.04395 31.7857 0.588196 27.3299 0.588196 21.857H-0.411804ZM10.5169 32.7857C16.3709 32.7857 21.151 28.1564 21.42 22.3678L20.4211 22.3214C20.1767 27.581 15.8321 31.7857 10.5169 31.7857V32.7857ZM21.0265 22.8332L50.8442 16.3722L50.6324 15.3949L20.8147 21.8559L21.0265 22.8332ZM50.2439 15.9583C51.0192 21.086 54.6414 25.2859 59.4531 26.8785L59.7673 25.9291C55.3086 24.4534 51.9509 20.5594 51.2327 15.8088L50.2439 15.9583ZM59.147 26.2155L48.0922 53.4137L49.0186 53.7903L60.0734 26.5921L59.147 26.2155ZM48.6507 53.1111C47.9709 52.9792 47.2649 52.9027 46.543 52.9027V53.9027C47.1943 53.9027 47.8362 53.9717 48.4601 54.0928L48.6507 53.1111ZM46.543 52.9027C40.5178 52.9027 35.6142 57.8029 35.6142 63.8314H36.6142C36.6142 58.3553 41.0699 53.9027 46.543 53.9027V52.9027ZM35.6142 63.8314C35.6142 69.8599 40.5178 74.7602 46.543 74.7602V73.7602C41.0699 73.7602 36.6142 69.3075 36.6142 63.8314H35.6142ZM46.543 74.7602C52.5714 74.7602 57.4717 69.8598 57.4717 63.8314H56.4717C56.4717 69.3076 52.0191 73.7602 46.543 73.7602V74.7602ZM57.4717 63.8314C57.4717 59.7245 55.1923 56.1477 51.8428 54.279L51.3556 55.1523C54.4037 56.8528 56.4717 60.1041 56.4717 63.8314H57.4717ZM52.0624 54.904L63.3173 27.2214L62.3909 26.8448L51.136 54.5273L52.0624 54.904ZM62.8219 27.5321C63.102 27.5501 63.4215 27.5774 63.7433 27.5774V26.5774C63.4638 26.5774 63.1948 26.554 62.8863 26.5341L62.8219 27.5321ZM63.7433 27.5774C71.2809 27.5774 77.4122 21.4462 77.4122 13.9084H76.4122C76.4122 20.8939 70.7286 26.5774 63.7433 26.5774V27.5774ZM77.4122 13.9084C77.4122 6.37403 71.2811 0.239441 63.7433 0.239441V1.23944C70.7287 1.23944 76.4122 6.92615 76.4122 13.9084H77.4122ZM63.3572 0.421759L63.3568 0.422247L64.129 1.05761L64.1294 1.05712L63.3572 0.421759ZM10.5169 28.5454C6.82854 28.5454 3.8282 25.545 3.8282 21.8566H2.8282C2.8282 26.0973 6.27626 29.5454 10.5169 29.5454V28.5454ZM3.8282 21.8566C3.8282 18.1682 6.82854 15.1679 10.5169 15.1679V14.1679C6.27626 14.1679 2.8282 17.6159 2.8282 21.8566H3.8282ZM10.5169 15.1679C14.2053 15.1679 17.2057 18.1682 17.2057 21.8566H18.2057C18.2057 17.6159 14.7576 14.1679 10.5169 14.1679V15.1679ZM17.2057 21.8566C17.2057 25.545 14.2053 28.5454 10.5169 28.5454V29.5454C14.7576 29.5454 18.2057 26.0973 18.2057 21.8566H17.2057ZM53.2321 63.8308C53.2321 67.5192 50.2317 70.5196 46.5433 70.5196V71.5196C50.784 71.5196 54.2321 68.0715 54.2321 63.8308H53.2321ZM46.5433 70.5196C42.8549 70.5196 39.8546 67.5192 39.8546 63.8308H38.8546C38.8546 68.0715 42.3026 71.5196 46.5433 71.5196V70.5196ZM39.8546 63.8308C39.8546 60.1424 42.8549 57.1421 46.5433 57.1421V56.1421C42.3026 56.1421 38.8546 59.5901 38.8546 63.8308H39.8546ZM46.5433 57.1421C47.1738 57.1421 47.7858 57.2359 48.3684 57.4015L48.6418 56.4396C47.9775 56.2508 47.2734 56.1421 46.5433 56.1421V57.1421ZM48.3173 57.3839L49.8012 57.9851L50.1767 57.0583L48.6928 56.4571L48.3173 57.3839ZM49.7481 57.9599C51.8232 59.1005 53.2321 61.3036 53.2321 63.8309H54.2321C54.2321 60.9222 52.6098 58.3918 50.2298 57.0835L49.7481 57.9599ZM54.2321 63.8309V63.8308H53.2321V63.8309H54.2321ZM63.7429 23.3371C58.5452 23.3371 54.3139 19.1059 54.3139 13.9081H53.3139C53.3139 19.6582 57.9929 24.3371 63.7429 24.3371V23.3371ZM54.3139 13.9081C54.3139 8.71026 58.545 4.47912 63.7429 4.47912V3.47912C57.9927 3.47912 53.3139 8.15798 53.3139 13.9081H54.3139ZM63.7429 4.47912C68.9405 4.47912 73.1718 8.71027 73.1718 13.9081H74.1718C74.1718 8.15797 69.4928 3.47912 63.7429 3.47912V4.47912ZM73.1718 13.9081C73.1718 19.1088 68.9408 23.3371 63.7429 23.3371V24.3371C69.4929 24.3371 74.1718 19.6613 74.1718 13.9081H73.1718Z" fill="white" mask="url(#path-1-inside-1_22:987)"/>
</svg>
