<svg width="62" height="62" viewBox="0 0 62 62" fill="none" xmlns="http://www.w3.org/2000/svg">
<mask id="path-1-inside-1_32:3253" fill="white">
<path d="M2.10516 0.585172C2.03959 0.585889 1.97414 0.590848 1.90922 0.600016H0.600002V1.9122C0.58205 2.04619 0.58205 2.18197 0.600002 2.31595V18.84C0.597153 19.0414 0.634365 19.2414 0.709474 19.4283C0.784582 19.6152 0.896091 19.7854 1.03752 19.9288C1.17895 20.0722 1.34747 20.1861 1.5333 20.2639C1.71913 20.3416 1.91856 20.3817 2.12 20.3817C2.32144 20.3817 2.52087 20.3416 2.7067 20.2639C2.89253 20.1861 3.06106 20.0722 3.20249 19.9288C3.34391 19.7854 3.45542 19.6152 3.53053 19.4283C3.60564 19.2414 3.64285 19.0414 3.64 18.84V5.78939L23.8453 25.9947C24.0041 26.16 24.1982 26.2872 24.4131 26.3669C24.628 26.4466 24.8581 26.4767 25.0863 26.4549C25.136 26.4504 25.1856 26.4434 25.2347 26.4341C25.5078 26.3805 25.761 26.2531 25.9667 26.0655C26.1723 25.878 26.3225 25.6376 26.4009 25.3705C26.4793 25.1035 26.4829 24.82 26.4113 24.5511C26.3396 24.2821 26.1955 24.038 25.9947 23.8453L5.78938 3.64002H18.84C19.0414 3.64286 19.2414 3.60565 19.4283 3.53054C19.6152 3.45544 19.7853 3.34393 19.9288 3.2025C20.0722 3.06107 20.1861 2.89255 20.2639 2.70671C20.3416 2.52088 20.3817 2.32145 20.3817 2.12002C20.3817 1.91858 20.3416 1.71915 20.2639 1.53332C20.1861 1.34749 20.0722 1.17896 19.9288 1.03753C19.7853 0.896105 19.6152 0.784597 19.4283 0.709488C19.2414 0.634379 19.0414 0.597168 18.84 0.600016H2.29813C2.23418 0.590974 2.16973 0.586016 2.10516 0.585172ZM59.8503 0.585172C59.7937 0.586962 59.7372 0.591918 59.6811 0.600016H43.16C42.9586 0.597168 42.7586 0.634379 42.5717 0.709488C42.3848 0.784597 42.2147 0.896105 42.0712 1.03753C41.9278 1.17896 41.8139 1.34749 41.7361 1.53332C41.6584 1.71915 41.6184 1.91858 41.6184 2.12002C41.6184 2.32145 41.6584 2.52088 41.7361 2.70671C41.8139 2.89255 41.9278 3.06107 42.0712 3.2025C42.2147 3.34393 42.3848 3.45544 42.5717 3.53054C42.7586 3.60565 42.9586 3.64286 43.16 3.64002H56.2106L36.0053 23.8453C35.8594 23.9854 35.743 24.1531 35.6627 24.3388C35.5825 24.5244 35.5401 24.7242 35.5381 24.9264C35.536 25.1286 35.5743 25.3292 35.6507 25.5165C35.7272 25.7037 35.8402 25.8738 35.9832 26.0168C36.1262 26.1598 36.2963 26.2728 36.4835 26.3493C36.6708 26.4257 36.8714 26.464 37.0736 26.462C37.2758 26.4599 37.4756 26.4175 37.6612 26.3373C37.8469 26.2571 38.0146 26.1406 38.1547 25.9947L58.36 5.78939V18.84C58.3572 19.0414 58.3944 19.2414 58.4695 19.4283C58.5446 19.6152 58.6561 19.7854 58.7975 19.9288C58.9389 20.0722 59.1075 20.1861 59.2933 20.2639C59.4791 20.3416 59.6786 20.3817 59.88 20.3817C60.0814 20.3817 60.2809 20.3416 60.4667 20.2639C60.6525 20.1861 60.8211 20.0722 60.9625 19.9288C61.1039 19.7854 61.2154 19.6152 61.2905 19.4283C61.3656 19.2414 61.4029 19.0414 61.4 18.84V2.31298C61.4193 2.17412 61.4193 2.03325 61.4 1.89439V0.600016H60.1027C60.0191 0.588071 59.9347 0.583106 59.8503 0.585172ZM24.8903 35.5452C24.4954 35.5569 24.1206 35.722 23.8453 36.0053L3.64 56.2106V43.16C3.64279 42.9567 3.60474 42.7548 3.5281 42.5664C3.45147 42.378 3.33782 42.2069 3.19387 42.0633C3.04992 41.9196 2.8786 41.8063 2.69007 41.73C2.50153 41.6537 2.29961 41.6161 2.09625 41.6192C1.69364 41.6255 1.30998 41.7913 1.02946 42.0802C0.748939 42.369 0.594488 42.7574 0.600002 43.16V59.6485C0.571881 59.8155 0.571881 59.9861 0.600002 60.1531V61.4H1.85281C2.01793 61.4275 2.18645 61.4275 2.35156 61.4H18.84C19.0414 61.4029 19.2414 61.3657 19.4283 61.2905C19.6152 61.2154 19.7853 61.1039 19.9288 60.9625C20.0722 60.8211 20.1861 60.6525 20.2639 60.4667C20.3416 60.2809 20.3817 60.0815 20.3817 59.88C20.3817 59.6786 20.3416 59.4791 20.2639 59.2933C20.1861 59.1075 20.0722 58.939 19.9288 58.7975C19.7853 58.6561 19.6152 58.5446 19.4283 58.4695C19.2414 58.3944 19.0414 58.3572 18.84 58.36H5.78938L25.9947 38.1547C26.2143 37.9412 26.3644 37.6663 26.4251 37.3661C26.4858 37.0659 26.4545 36.7543 26.3351 36.4722C26.2157 36.1901 26.0139 35.9507 25.7561 35.7852C25.4983 35.6198 25.1965 35.5361 24.8903 35.5452ZM37.0652 35.5452C36.7719 35.5452 36.4848 35.6301 36.2387 35.7895C35.9925 35.949 35.7978 36.1763 35.6779 36.444C35.558 36.7117 35.5181 37.0083 35.5631 37.2982C35.608 37.588 35.7358 37.8587 35.9311 38.0775C35.9549 38.1041 35.9797 38.1299 36.0053 38.1547L56.2106 58.36H43.16C42.9586 58.3572 42.7586 58.3944 42.5717 58.4695C42.3848 58.5446 42.2147 58.6561 42.0712 58.7975C41.9278 58.939 41.8139 59.1075 41.7361 59.2933C41.6584 59.4791 41.6184 59.6786 41.6184 59.88C41.6184 60.0815 41.6584 60.2809 41.7361 60.4667C41.8139 60.6525 41.9278 60.8211 42.0712 60.9625C42.2147 61.1039 42.3848 61.2154 42.5717 61.2905C42.7586 61.3657 42.9586 61.4029 43.16 61.4H59.6484C59.8155 61.4281 59.9861 61.4281 60.1531 61.4H61.4V60.1472C61.4275 59.9821 61.4275 59.8136 61.4 59.6485V43.16C61.4028 42.9567 61.3647 42.7548 61.2881 42.5664C61.2115 42.378 61.0978 42.2069 60.9539 42.0633C60.8099 41.9196 60.6386 41.8063 60.4501 41.73C60.2615 41.6537 60.0596 41.6161 59.8563 41.6192C59.4536 41.6255 59.07 41.7913 58.7895 42.0802C58.5089 42.369 58.3545 42.7574 58.36 43.16V56.2106L38.1547 36.0053C38.013 35.8597 37.8436 35.744 37.6565 35.6649C37.4694 35.5859 37.2683 35.5452 37.0652 35.5452Z"/>
</mask>
<path d="M2.10516 0.585172C2.03959 0.585889 1.97414 0.590848 1.90922 0.600016H0.600002V1.9122C0.58205 2.04619 0.58205 2.18197 0.600002 2.31595V18.84C0.597153 19.0414 0.634365 19.2414 0.709474 19.4283C0.784582 19.6152 0.896091 19.7854 1.03752 19.9288C1.17895 20.0722 1.34747 20.1861 1.5333 20.2639C1.71913 20.3416 1.91856 20.3817 2.12 20.3817C2.32144 20.3817 2.52087 20.3416 2.7067 20.2639C2.89253 20.1861 3.06106 20.0722 3.20249 19.9288C3.34391 19.7854 3.45542 19.6152 3.53053 19.4283C3.60564 19.2414 3.64285 19.0414 3.64 18.84V5.78939L23.8453 25.9947C24.0041 26.16 24.1982 26.2872 24.4131 26.3669C24.628 26.4466 24.8581 26.4767 25.0863 26.4549C25.136 26.4504 25.1856 26.4434 25.2347 26.4341C25.5078 26.3805 25.761 26.2531 25.9667 26.0655C26.1723 25.878 26.3225 25.6376 26.4009 25.3705C26.4793 25.1035 26.4829 24.82 26.4113 24.5511C26.3396 24.2821 26.1955 24.038 25.9947 23.8453L5.78938 3.64002H18.84C19.0414 3.64286 19.2414 3.60565 19.4283 3.53054C19.6152 3.45544 19.7853 3.34393 19.9288 3.2025C20.0722 3.06107 20.1861 2.89255 20.2639 2.70671C20.3416 2.52088 20.3817 2.32145 20.3817 2.12002C20.3817 1.91858 20.3416 1.71915 20.2639 1.53332C20.1861 1.34749 20.0722 1.17896 19.9288 1.03753C19.7853 0.896105 19.6152 0.784597 19.4283 0.709488C19.2414 0.634379 19.0414 0.597168 18.84 0.600016H2.29813C2.23418 0.590974 2.16973 0.586016 2.10516 0.585172ZM59.8503 0.585172C59.7937 0.586962 59.7372 0.591918 59.6811 0.600016H43.16C42.9586 0.597168 42.7586 0.634379 42.5717 0.709488C42.3848 0.784597 42.2147 0.896105 42.0712 1.03753C41.9278 1.17896 41.8139 1.34749 41.7361 1.53332C41.6584 1.71915 41.6184 1.91858 41.6184 2.12002C41.6184 2.32145 41.6584 2.52088 41.7361 2.70671C41.8139 2.89255 41.9278 3.06107 42.0712 3.2025C42.2147 3.34393 42.3848 3.45544 42.5717 3.53054C42.7586 3.60565 42.9586 3.64286 43.16 3.64002H56.2106L36.0053 23.8453C35.8594 23.9854 35.743 24.1531 35.6627 24.3388C35.5825 24.5244 35.5401 24.7242 35.5381 24.9264C35.536 25.1286 35.5743 25.3292 35.6507 25.5165C35.7272 25.7037 35.8402 25.8738 35.9832 26.0168C36.1262 26.1598 36.2963 26.2728 36.4835 26.3493C36.6708 26.4257 36.8714 26.464 37.0736 26.462C37.2758 26.4599 37.4756 26.4175 37.6612 26.3373C37.8469 26.2571 38.0146 26.1406 38.1547 25.9947L58.36 5.78939V18.84C58.3572 19.0414 58.3944 19.2414 58.4695 19.4283C58.5446 19.6152 58.6561 19.7854 58.7975 19.9288C58.9389 20.0722 59.1075 20.1861 59.2933 20.2639C59.4791 20.3416 59.6786 20.3817 59.88 20.3817C60.0814 20.3817 60.2809 20.3416 60.4667 20.2639C60.6525 20.1861 60.8211 20.0722 60.9625 19.9288C61.1039 19.7854 61.2154 19.6152 61.2905 19.4283C61.3656 19.2414 61.4029 19.0414 61.4 18.84V2.31298C61.4193 2.17412 61.4193 2.03325 61.4 1.89439V0.600016H60.1027C60.0191 0.588071 59.9347 0.583106 59.8503 0.585172ZM24.8903 35.5452C24.4954 35.5569 24.1206 35.722 23.8453 36.0053L3.64 56.2106V43.16C3.64279 42.9567 3.60474 42.7548 3.5281 42.5664C3.45147 42.378 3.33782 42.2069 3.19387 42.0633C3.04992 41.9196 2.8786 41.8063 2.69007 41.73C2.50153 41.6537 2.29961 41.6161 2.09625 41.6192C1.69364 41.6255 1.30998 41.7913 1.02946 42.0802C0.748939 42.369 0.594488 42.7574 0.600002 43.16V59.6485C0.571881 59.8155 0.571881 59.9861 0.600002 60.1531V61.4H1.85281C2.01793 61.4275 2.18645 61.4275 2.35156 61.4H18.84C19.0414 61.4029 19.2414 61.3657 19.4283 61.2905C19.6152 61.2154 19.7853 61.1039 19.9288 60.9625C20.0722 60.8211 20.1861 60.6525 20.2639 60.4667C20.3416 60.2809 20.3817 60.0815 20.3817 59.88C20.3817 59.6786 20.3416 59.4791 20.2639 59.2933C20.1861 59.1075 20.0722 58.939 19.9288 58.7975C19.7853 58.6561 19.6152 58.5446 19.4283 58.4695C19.2414 58.3944 19.0414 58.3572 18.84 58.36H5.78938L25.9947 38.1547C26.2143 37.9412 26.3644 37.6663 26.4251 37.3661C26.4858 37.0659 26.4545 36.7543 26.3351 36.4722C26.2157 36.1901 26.0139 35.9507 25.7561 35.7852C25.4983 35.6198 25.1965 35.5361 24.8903 35.5452ZM37.0652 35.5452C36.7719 35.5452 36.4848 35.6301 36.2387 35.7895C35.9925 35.949 35.7978 36.1763 35.6779 36.444C35.558 36.7117 35.5181 37.0083 35.5631 37.2982C35.608 37.588 35.7358 37.8587 35.9311 38.0775C35.9549 38.1041 35.9797 38.1299 36.0053 38.1547L56.2106 58.36H43.16C42.9586 58.3572 42.7586 58.3944 42.5717 58.4695C42.3848 58.5446 42.2147 58.6561 42.0712 58.7975C41.9278 58.939 41.8139 59.1075 41.7361 59.2933C41.6584 59.4791 41.6184 59.6786 41.6184 59.88C41.6184 60.0815 41.6584 60.2809 41.7361 60.4667C41.8139 60.6525 41.9278 60.8211 42.0712 60.9625C42.2147 61.1039 42.3848 61.2154 42.5717 61.2905C42.7586 61.3657 42.9586 61.4029 43.16 61.4H59.6484C59.8155 61.4281 59.9861 61.4281 60.1531 61.4H61.4V60.1472C61.4275 59.9821 61.4275 59.8136 61.4 59.6485V43.16C61.4028 42.9567 61.3647 42.7548 61.2881 42.5664C61.2115 42.378 61.0978 42.2069 60.9539 42.0633C60.8099 41.9196 60.6386 41.8063 60.4501 41.73C60.2615 41.6537 60.0596 41.6161 59.8563 41.6192C59.4536 41.6255 59.07 41.7913 58.7895 42.0802C58.5089 42.369 58.3545 42.7574 58.36 43.16V56.2106L38.1547 36.0053C38.013 35.8597 37.8436 35.744 37.6565 35.6649C37.4694 35.5859 37.2683 35.5452 37.0652 35.5452Z" fill="black" stroke="white" mask="url(#path-1-inside-1_32:3253)"/>
</svg>
