<svg width="82" height="73" viewBox="0 0 82 73" fill="none" xmlns="http://www.w3.org/2000/svg">
<path d="M28.3979 14V14.3932L28.7801 14.4859C31.8786 15.2377 34.1987 17.9558 34.1987 21.1016C34.1987 21.927 33.5242 22.6016 32.6987 22.6016C31.8733 22.6016 31.1987 21.9271 31.1987 21.1016C31.1987 18.8742 29.2196 17.2032 26.8979 17.2032C24.5762 17.2032 22.5971 18.8742 22.5971 21.1016C22.5971 23.329 24.5762 25 26.8979 25C31.058 25 34.2926 28.1064 34.1989 31.886L34.1987 31.886V31.8984C34.1987 35.0481 31.8788 37.7624 28.7801 38.5141L28.3979 38.6068V39V42.3984C28.3979 43.2238 27.7234 43.8984 26.8979 43.8984C26.0725 43.8984 25.3979 43.2239 25.3979 42.3984V39V38.6068L25.0158 38.5141C21.9173 37.7624 19.5971 35.0442 19.5971 31.8984C19.5971 31.073 20.2717 30.3984 21.0971 30.3984C21.9226 30.3984 22.5971 31.073 22.5971 31.8984C22.5971 34.1258 24.5762 35.7968 26.8979 35.7968C29.2196 35.7968 31.1987 34.1258 31.1987 31.8984C31.1987 29.671 29.2196 28 26.8979 28C22.847 28 19.5971 24.9015 19.5971 21.1016C19.5971 17.952 21.9171 15.2377 25.0158 14.4859L25.3979 14.3932V14V10.6016C25.3979 9.7762 26.0725 9.10162 26.8979 9.10162C27.7234 9.10162 28.3979 9.77617 28.3979 10.6016V14Z" fill="black" stroke="white"/>
<path d="M79.8009 27.398H79.826C80.6365 27.4113 81.3016 28.0844 81.3016 28.8977L81.2977 46.2997C81.2977 47.1252 80.6232 47.7998 79.7977 47.7998C78.9723 47.7998 78.2977 47.1253 78.2977 46.2998V33.4988V32.2917L77.4442 33.1453L58.9442 51.6453L58.9424 51.647C58.6359 51.9566 58.263 52.1004 57.8993 52.1004C57.5379 52.1004 57.1634 51.9542 56.8545 51.6453L56.8532 51.644L42.7512 37.644L42.3982 37.2935L42.0459 37.6447L8.34291 71.2467L8.34065 71.249C8.03411 71.5586 7.66116 71.7024 7.29754 71.7024C6.93606 71.7024 6.5616 71.5562 6.2527 71.2473C5.6473 70.6419 5.64718 69.7595 6.25229 69.154C6.25243 69.1539 6.25256 69.1537 6.25269 69.1536L41.4512 34.0521L41.4634 34.0399L41.4748 34.0269C41.9621 33.4688 42.9249 33.4318 43.5447 34.0509C43.545 34.0512 43.5452 34.0514 43.5454 34.0516L57.5441 48.1523L57.8977 48.5084L58.2525 48.1536L75.1545 31.2516L76.008 30.398H74.8009H62.4999C61.6745 30.398 60.9999 29.7235 60.9999 28.898C60.9999 28.0726 61.6745 27.398 62.4999 27.398H79.8009Z" fill="black" stroke="white"/>
<path d="M53.1993 26.4996C53.1993 30.6779 52.2321 34.6774 50.47 38.1648L48.1934 35.8881C49.4369 33.0174 50.1993 29.854 50.1993 26.4996C50.1993 13.722 39.775 3.30061 26.8983 3.30061C14.0202 3.30061 3.59734 13.7235 3.59734 26.6016C3.59734 38.1161 11.9804 47.7007 23.0392 49.5547L20.5449 52.0489C9.20108 49.2029 0.699341 38.8642 0.699341 26.4996C0.699341 12.0731 12.3811 0.198608 26.8983 0.198608C41.4232 0.198608 53.1993 11.9747 53.1993 26.4996Z" fill="black" stroke="white"/>
<path d="M29.8184 52.5922L33.6683 48.7423C37.8276 47.4591 41.5277 45.0736 44.3268 41.9313L46.4204 44.0214C42.2034 48.7124 36.3671 51.8937 29.8184 52.5922Z" fill="black" stroke="white"/>
</svg>
