<svg width="68" height="68" viewBox="0 0 68 68" fill="none" xmlns="http://www.w3.org/2000/svg">
<path d="M1.01991 64.135H27.3253C27.9849 66.1596 29.8716 67.5704 32.0733 67.5704H60.981C63.4387 67.5704 65.5157 65.8215 65.9193 63.4131L66.2442 61.4739C66.4017 60.5452 66.1392 59.6003 65.5289 58.8817C65.1876 58.4781 64.7512 58.1795 64.2721 57.9859V54.9246C64.5806 54.8261 64.9448 54.7638 65.4468 54.7638C65.8635 54.7638 66.2179 54.4586 66.2769 54.0452C66.2901 53.9533 66.5132 52.2438 65.2269 50.7508C66.5033 50.2159 67.4057 48.956 67.4057 47.4925V46.6525C67.4057 44.8675 66.0637 43.4041 64.3312 43.1679V40.159C65.4763 39.7455 66.3032 38.6561 66.3032 37.3699V36.3921C66.3032 30.5547 61.5553 25.8039 55.715 25.8039L44.2238 25.8104V18.7623C44.2238 17.2956 43.9351 15.8748 43.3642 14.5361L39.8926 6.41501L39.8893 1.40122C39.8893 0.935279 39.5153 0.561218 39.0493 0.561218H5.35106C4.88512 0.561218 4.51106 0.935279 4.51106 1.40122V6.41829L1.03951 14.5394C0.465292 15.8748 0.176575 17.299 0.176575 18.7656V63.299C0.179856 63.7617 0.55392 64.1358 1.01985 64.1358L1.01991 64.135ZM64.5877 61.195L64.2629 63.1342C63.9938 64.7321 62.6125 65.8904 60.9817 65.8904H32.0739C30.4399 65.8904 29.0618 64.7321 28.7927 63.1342L28.4679 61.195C28.3924 60.7553 28.5171 60.3058 28.8058 59.9646C29.0421 59.6889 29.3637 59.5085 29.718 59.4461H33.964C35.6374 59.4461 37.2157 60.0925 38.4002 61.2705L40.779 63.633C40.9431 63.7971 41.1564 63.8758 41.3697 63.8758C41.583 63.8758 41.7995 63.7938 41.9603 63.633L44.3392 61.2705C45.5237 60.0959 47.0987 59.4461 48.7754 59.4461H63.3343C63.6886 59.5085 64.0102 59.6857 64.2464 59.9646C64.5385 60.3058 64.6631 60.7553 64.5877 61.195H64.5877ZM48.7789 57.7694C46.656 57.7694 44.661 58.5897 43.1582 60.0827L41.3699 61.8578L39.5816 60.0827C38.0821 58.593 36.0838 57.7694 33.9641 57.7694H30.3449V55.6333C30.8404 55.8269 31.4539 55.9778 32.3366 55.9778C33.7213 55.9778 34.4464 55.607 35.0863 55.2789C35.6474 54.9901 36.0903 54.7637 37.0682 54.7637C38.046 54.7637 38.4889 54.9901 39.0501 55.2789C39.6899 55.607 40.4118 55.9778 41.7964 55.9778C43.1811 55.9778 43.9063 55.607 44.5461 55.2789C45.1072 54.9901 45.5469 54.7637 46.528 54.7637C47.5058 54.7637 47.9488 54.9901 48.5099 55.2789C49.1497 55.607 49.8716 55.9778 51.2563 55.9778C52.6409 55.9778 53.3661 55.607 54.0027 55.2789C54.5605 54.9901 55.0034 54.7637 55.9813 54.7637C56.9591 54.7637 57.402 54.9901 57.9599 55.2789C58.5997 55.607 59.3216 55.9778 60.7063 55.9778C61.52 55.9778 62.1041 55.8465 62.5799 55.6759V57.7661L48.7789 57.7694ZM62.7011 53.7859C62.1433 54.0747 61.7003 54.2978 60.7225 54.2978C59.7446 54.2978 59.3017 54.0714 58.7439 53.7827C58.104 53.4545 57.3821 53.0837 55.9975 53.0837C54.6128 53.0837 53.8877 53.4545 53.2511 53.7827C52.6933 54.0714 52.2503 54.2978 51.2725 54.2978C50.2946 54.2978 49.8517 54.0714 49.2906 53.7827C48.6507 53.4545 47.9289 53.0837 46.5442 53.0837C45.1596 53.0837 44.4344 53.4545 43.7946 53.7827C43.2335 54.0714 42.7938 54.2978 41.8127 54.2978C40.8348 54.2978 40.3919 54.0714 39.8308 53.7827C39.1909 53.4545 38.469 53.0837 37.0844 53.0837C35.6997 53.0837 34.9746 53.4545 34.3347 53.7827C33.7736 54.0714 33.3307 54.2978 32.3528 54.2978C31.3717 54.2978 30.9288 54.0714 30.3709 53.7827C29.9017 53.5431 29.3833 53.2773 28.5958 53.1559C28.7664 52.5653 29.1536 51.7286 30.0396 51.0297H62.96C62.9895 51.0527 63.0092 51.0822 63.042 51.0986C64.1314 51.7089 64.4891 52.5555 64.6006 53.1396C63.7311 53.2577 63.193 53.5333 62.7008 53.786L62.7011 53.7859ZM65.7297 46.6558V47.4958C65.7297 48.5196 64.8897 49.3496 63.8561 49.3496H29.1994C28.1658 49.3496 27.3258 48.5195 27.3258 47.4958V46.6558C27.3258 45.632 28.1658 44.8019 29.1994 44.8019C29.2814 44.8019 29.3602 44.7756 29.4356 44.7527C29.4816 44.7592 29.5209 44.7789 29.5702 44.7789L44.3979 44.7822C45.9597 44.7822 47.4297 45.3859 48.5322 46.4819L51.0359 48.969C51.1999 49.1298 51.4132 49.2118 51.6265 49.2118C51.8398 49.2118 52.0563 49.1298 52.2171 48.969L54.7207 46.4819C55.8101 45.4023 57.3162 44.7822 58.8584 44.7822H63.3111C63.3472 44.7855 63.3767 44.8019 63.4128 44.8019H63.8558C64.8894 44.8019 65.7294 45.6353 65.7294 46.6558H65.7297ZM62.6552 43.1021H58.8621C56.8834 43.1021 54.9442 43.8995 53.5432 45.2908L51.6335 47.1906L49.7206 45.2908C48.2998 43.8798 46.4098 43.1021 44.4017 43.1021H30.4107V40.3492H62.6591L62.6552 43.1021ZM64.6272 36.3953V37.3731C64.6272 38.0884 64.0464 38.6692 63.3311 38.6692H29.9907C29.2754 38.6692 28.6945 38.0884 28.6945 37.3731V36.3953C28.6945 31.4832 32.6911 27.4871 37.6027 27.4871H55.7215C60.6303 27.4903 64.6272 31.4869 64.6272 36.3953ZM6.19179 2.24086H38.2101V5.66974L6.19179 5.66645V2.24086ZM16.8757 7.34646H27.5269V22.348H16.8757V7.34646ZM1.86075 18.7621C1.86075 17.5217 2.10356 16.3241 2.5859 15.1986L5.94262 7.34654H15.1961V23.1881C15.1961 23.654 15.5701 24.0281 16.0361 24.0281H28.3673C28.8332 24.0281 29.2073 23.654 29.2073 23.1881V7.34654H38.4607L41.8174 15.1953C42.2998 16.3241 42.5426 17.5217 42.5426 18.7621V25.8102H37.601C31.7637 25.8102 27.0128 30.5581 27.0128 36.3984V37.3762C27.0128 38.564 27.7183 39.5845 28.729 40.0603V43.1709C26.9932 43.4038 25.6478 44.8672 25.6478 46.6555V47.4955C25.6478 48.9951 26.5961 50.2715 27.925 50.7834C26.7667 52.2993 26.7667 53.8513 26.7667 53.9334C26.7733 54.3927 27.1473 54.7635 27.6067 54.7635C28.0497 54.7635 28.3811 54.8127 28.6665 54.8882V58.0218C28.2334 58.2154 27.8397 58.5042 27.5246 58.8782C26.9143 59.5968 26.6551 60.5418 26.8093 61.4704L26.9734 62.4515L1.8616 62.4548L1.86075 18.7621Z" fill="black"/>
</svg>
